<svg width="70" height="82" viewBox="0 0 70 82" fill="none" xmlns="http://www.w3.org/2000/svg">
<g filter="url(#filter0_d)">
<path d="M65.9204 19.0536C65.8825 17.0557 65.8464 15.1683 65.8464 13.3424C65.8464 11.9119 64.6904 10.7522 63.2637 10.7522C52.2184 10.7522 43.8089 7.56873 36.7991 0.73341C35.7963 -0.244643 34.2006 -0.244297 33.1982 0.73341C26.1891 7.56873 17.7809 10.7522 6.73633 10.7522C5.31 10.7522 4.15364 11.9119 4.15364 13.3424C4.15364 15.1687 4.11783 17.0567 4.07961 19.055C3.72561 37.6477 3.24075 63.1112 34.1527 73.857C34.4268 73.9523 34.7126 74 34.9985 74C35.2843 74 35.5704 73.9523 35.8442 73.857C66.7586 63.1109 66.2744 37.6466 65.9204 19.0536ZM34.9988 68.6611C8.48773 59.0025 8.88856 37.8442 9.24429 19.1538C9.26564 18.032 9.2863 16.9448 9.30076 15.8791C19.6453 15.4412 27.9174 12.2974 34.9988 6.11063C42.0809 12.2974 50.3544 15.4415 60.6996 15.8791C60.7141 16.9445 60.7347 18.031 60.7561 19.152C61.1115 37.8431 61.5119 59.0022 34.9988 68.6611Z" fill="white"/>
<path d="M43.8925 28.0021L31.4271 40.5031L26.1078 35.1683C25.0992 34.1571 23.4639 34.1571 22.4556 35.1683C21.447 36.1802 21.447 37.82 22.4556 38.8315L29.601 45.9977C30.1052 46.5033 30.7663 46.7561 31.4271 46.7561C32.088 46.7561 32.7491 46.5033 33.2533 45.9977L47.5445 31.6654C48.5534 30.6538 48.5534 29.0137 47.5448 28.0025C46.5365 26.9909 44.9012 26.9906 43.8925 28.0021Z" fill="white"/>
</g>
<defs>
<filter id="filter0_d" x="0" y="0" width="70" height="82" filterUnits="userSpaceOnUse" color-interpolation-filters="sRGB">
<feFlood flood-opacity="0" result="BackgroundImageFix"/>
<feColorMatrix in="SourceAlpha" type="matrix" values="0 0 0 0 0 0 0 0 0 0 0 0 0 0 0 0 0 0 127 0"/>
<feOffset dy="4"/>
<feGaussianBlur stdDeviation="2"/>
<feColorMatrix type="matrix" values="0 0 0 0 0 0 0 0 0 0 0 0 0 0 0 0 0 0 0.25 0"/>
<feBlend mode="normal" in2="BackgroundImageFix" result="effect1_dropShadow"/>
<feBlend mode="normal" in="SourceGraphic" in2="effect1_dropShadow" result="shape"/>
</filter>
</defs>
</svg>
