<svg width="54" height="43" fill="none" xmlns="http://www.w3.org/2000/svg"><path d="M37.525 21.105c0 5.783-4.712 10.47-10.525 10.47-5.813 0-10.525-4.687-10.525-10.47S21.187 10.635 27 10.635c5.813 0 10.525 4.687 10.525 10.47z" fill="#C4C4C4"/><path d="M24.674 22.465c-.652-1.405-.047-3.068 1.346-3.708 1.389-.64 3.047-.016 3.7 1.388l13.76 7.672-15.257-3.894c-1.358.523-2.92-.105-3.549-1.458z" fill="#030104"/><g filter="url(#filter0_d)"><path d="M10.736 6.731A22.859 22.859 0 0127 0c6.144 0 11.92 2.39 16.264 6.731A22.823 22.823 0 0150 22.983c0 3.963-1 7.773-2.876 11.144h-4.299l-3.144-1.814 1.389-2.404 4.043 2.333a20.197 20.197 0 002.159-11.01l-4.82.85-.483-2.734 4.877-.86a20.32 20.32 0 00-5.55-9.96l-3.304 3.936-2.128-1.784 3.33-3.965A20.245 20.245 0 0028.388 2.7v5.263h-2.777V2.699a20.248 20.248 0 00-10.805 4.016l3.33 3.965-2.127 1.784-3.305-3.935a20.322 20.322 0 00-5.55 9.96l4.877.86-.482 2.732-4.82-.85a20.194 20.194 0 002.159 11.01l4.042-2.332 1.389 2.404-3.144 1.813h-4.3A22.836 22.836 0 014 22.982c0-6.138 2.393-11.91 6.736-16.25z" fill="#030104"/></g><defs><filter id="filter0_d" x="0" y="0" width="54" height="42.127" filterUnits="userSpaceOnUse" color-interpolation-filters="sRGB"><feFlood flood-opacity="0" result="BackgroundImageFix"/><feColorMatrix in="SourceAlpha" values="0 0 0 0 0 0 0 0 0 0 0 0 0 0 0 0 0 0 127 0"/><feOffset dy="4"/><feGaussianBlur stdDeviation="2"/><feColorMatrix values="0 0 0 0 0 0 0 0 0 0 0 0 0 0 0 0 0 0 0.25 0"/><feBlend in2="BackgroundImageFix" result="effect1_dropShadow"/><feBlend in="SourceGraphic" in2="effect1_dropShadow" result="shape"/></filter></defs></svg>